<svg width="253" height="253" viewBox="0 0 253 253" fill="none" xmlns="http://www.w3.org/2000/svg">
<path d="M123.934 32.2348C172.914 31.4195 213.281 70.4641 214.096 119.444C214.119 120.824 214.109 122.197 214.069 123.563C212.642 75.1276 172.527 36.7033 123.934 37.5122C76.3298 38.3047 38.1119 76.459 36.7517 123.57C36.7401 123.179 36.7309 122.789 36.7243 122.397C35.909 73.4171 74.9544 33.0502 123.934 32.2348Z" fill="url(#paint0_linear_96_226)"/>
<path d="M127.168 222.274C78.1895 223.183 37.748 184.215 36.8392 135.237C36.8373 135.134 36.8372 135.032 36.8357 134.929C41.5981 180.211 80.3157 215.095 126.686 214.234C175.564 213.327 214.472 173.049 213.728 124.206C213.996 126.754 214.157 129.336 214.205 131.946C215.114 180.924 176.146 221.366 127.168 222.274Z" fill="url(#paint1_linear_96_226)"/>
<path d="M126.212 36.2223L150.115 101.914L214.712 126.222L150.115 150.53L126.212 216.222L102.309 150.53L37.7118 126.222L102.309 101.914L126.212 36.2223Z" fill="#9B99D6"/>
<path d="M189.533 62.2662L160.3 125.766L189.102 188.488L126.095 160.314L62.8902 190.178L92.1231 126.679L63.3215 63.9561L126.328 92.1308L189.533 62.2662Z" fill="#796FAA"/>
<path d="M191.551 130.155L144.192 148.169L126.495 197.299L109.197 148.027L61.9855 129.629L109.345 111.615L127.042 62.4854L144.339 111.757L191.551 130.155Z" fill="#231942"/>
<defs>
<linearGradient id="paint0_linear_96_226" x1="125.41" y1="32.2223" x2="125.41" y2="123.57" gradientUnits="userSpaceOnUse">
<stop stop-color="#9B99D6"/>
<stop offset="0.533654" stop-color="#515070"/>
</linearGradient>
<linearGradient id="paint1_linear_96_226" x1="125.075" y1="110.134" x2="125.489" y2="222.289" gradientUnits="userSpaceOnUse">
<stop offset="0.605769" stop-color="#4B3F5A"/>
<stop offset="1" stop-color="#9F86C0"/>
</linearGradient>
</defs>
</svg>
