<svg width="244" height="256" viewBox="0 0 244 256" fill="none" xmlns="http://www.w3.org/2000/svg">
<path d="M55.0703 110C55.0704 133.415 73.7559 152.467 97.0293 153.057L98.1406 153.07C74.3536 153.07 55.0704 172.354 55.0703 196.141C55.0703 172.725 36.3847 153.674 13.1113 153.085L12 153.07C35.787 153.07 55.0703 133.787 55.0703 110Z" fill="#9F86C0"/>
<path d="M112.07 11.0001C112.07 51.5884 144.717 84.5521 185.184 85.0645L186.141 85.0704C145.233 85.0704 112.07 118.233 112.07 159.141C112.07 118.552 79.4238 85.5886 38.957 85.0762L38 85.0704C78.9078 85.0703 112.07 51.9079 112.07 11.0001Z" fill="#231942"/>
<path d="M23.0314 191.897C14.997 185.119 8.48056 177.141 3.48531 168.336C43.1151 182.657 92.4233 168.561 124.817 130.161C157.211 91.7604 162.798 40.7827 142.005 4.13225C151.526 7.57278 160.488 12.6512 168.523 19.4289C210.002 54.4199 211.058 121.394 170.881 169.02C130.705 216.645 64.5104 226.888 23.0314 191.897Z" fill="url(#paint0_linear_66_272)"/>
<path d="M148.07 128C148.07 151.415 166.756 170.467 190.029 171.057L191.141 171.07C167.354 171.07 148.07 190.354 148.07 214.141C148.07 190.725 129.385 171.674 106.111 171.085L105 171.07C128.787 171.07 148.07 151.787 148.07 128Z" fill="#796FAA"/>
<defs>
<linearGradient id="paint0_linear_66_272" x1="49.0422" y1="114.332" x2="163.087" y2="189.018" gradientUnits="userSpaceOnUse">
<stop offset="0.4375" stop-color="#D9D9D9"/>
<stop offset="1" stop-color="#796FAA"/>
</linearGradient>
</defs>
</svg>
