<svg width="257" height="239" viewBox="0 0 257 239" fill="none" xmlns="http://www.w3.org/2000/svg">
<path d="M74.0703 7.40704C74.0704 47.9954 106.717 80.9591 147.184 81.4715L148.141 81.4774C107.233 81.4774 74.0704 114.64 74.0703 155.548C74.0703 114.959 41.4238 81.9956 0.957031 81.4832L0 81.4774C40.9078 81.4773 74.0703 48.3149 74.0703 7.40704Z" fill="#E0B1CB"/>
<path d="M156.041 0C156.041 20.1342 172.108 36.5163 192.12 37.0234L193.077 37.0352C172.623 37.0352 156.041 53.6164 156.041 74.0703C156.041 53.936 139.974 37.554 119.962 37.0469L119.006 37.0352C139.46 37.0351 156.041 20.4539 156.041 0Z" fill="#282F4D"/>
<path d="M98.761 142.215C98.761 168.732 120.525 190.269 147.502 190.604L148.141 190.607C120.869 190.607 98.7616 212.273 98.761 238.999H98.76C98.7595 212.482 76.9954 190.946 50.0179 190.611L49.3802 190.607C76.652 190.607 98.76 168.941 98.76 142.215H98.761Z" fill="#4B3F5A"/>
<path d="M182.213 58.2686C182.213 98.8569 214.859 131.821 255.326 132.333L256.283 132.339C215.375 132.339 182.213 165.501 182.213 206.409C182.213 165.821 149.566 132.857 109.1 132.345L108.143 132.339C149.05 132.339 182.213 99.1764 182.213 58.2686Z" fill="#9F86C0"/>
</svg>
