<svg width="153" height="153" viewBox="0 0 153 153" fill="none" xmlns="http://www.w3.org/2000/svg">
<path d="M153 76.5C153 118.75 118.75 153 76.5 153C34.2502 153 0 118.75 0 76.5C0 34.2502 34.2502 0 76.5 0C118.75 0 153 34.2502 153 76.5ZM12.0667 76.5C12.0667 112.086 40.9145 140.933 76.5 140.933C112.086 140.933 140.933 112.086 140.933 76.5C140.933 40.9145 112.086 12.0667 76.5 12.0667C40.9145 12.0667 12.0667 40.9145 12.0667 76.5Z" fill="url(#paint0_radial_66_178)"/>
<path d="M76 5L103.508 39.138L144.476 54.7508L120.509 91.462L118.321 135.249L76 123.8L33.6795 135.249L31.4906 91.462L7.52393 54.7508L48.4917 39.138L76 5Z" fill="url(#paint1_radial_66_178)"/>
<defs>
<radialGradient id="paint0_radial_66_178" cx="0" cy="0" r="1" gradientUnits="userSpaceOnUse" gradientTransform="translate(76.5 76.5) rotate(90) scale(76.5)">
<stop offset="0.663462" stop-color="#9B99D6"/>
<stop offset="1" stop-color="#515070"/>
</radialGradient>
<radialGradient id="paint1_radial_66_178" cx="0" cy="0" r="1" gradientUnits="userSpaceOnUse" gradientTransform="translate(76 77) rotate(90) scale(72)">
<stop offset="0.274038" stop-color="#A8678B"/>
<stop offset="0.591346" stop-color="#925576"/>
<stop offset="1" stop-color="#4D3758"/>
</radialGradient>
</defs>
</svg>
