<svg width="206" height="206" viewBox="0 0 206 206" fill="none" xmlns="http://www.w3.org/2000/svg">
<path d="M186.583 113.96L145.542 194.782L146.83 195.436C133.89 201.594 119.445 205.125 104.177 205.325C88.4428 205.531 73.4913 202.18 60.086 196.019L117.342 83.7887L186.583 113.96ZM101.491 0.342638C158.096 -0.398895 204.584 44.8868 205.325 101.491C205.838 140.671 184.299 175.001 152.22 192.672L191.175 115.961L200.568 120.055L202.565 115.471L26.5458 38.77L24.548 43.3542L42.5999 51.22L3.98344 130.033C1.72085 121.789 0.45988 113.124 0.342664 104.177C-0.398869 47.5722 44.8869 1.08417 101.491 0.342638ZM112.749 81.7881L55.5949 193.82C30.8622 180.951 12.0004 158.285 4.22426 130.897L8.17968 132.835L47.1414 53.3179L44.9543 52.2459L112.749 81.7881Z" fill="url(#paint0_linear_26_124)"/>
<defs>
<linearGradient id="paint0_linear_26_124" x1="-0.301442" y1="55.0091" x2="205.969" y2="150.659" gradientUnits="userSpaceOnUse">
<stop stop-color="#583752"/>
<stop offset="0.278846" stop-color="#7F5A75"/>
<stop offset="0.466346" stop-color="#B287A2"/>
<stop offset="0.5" stop-color="#E0B1CB"/>
<stop offset="0.543269" stop-color="#AD8DA8"/>
<stop offset="0.6875" stop-color="#7D6A87"/>
<stop offset="1" stop-color="#282F4D"/>
</linearGradient>
</defs>
</svg>
