<svg width="223" height="223" viewBox="0 0 223 223" fill="none" xmlns="http://www.w3.org/2000/svg">
<g clip-path="url(#paint0_diamond_66_332_clip_path)" data-figma-skip-parse="true"><g transform="matrix(0 0.1115 -0.1115 0 111.5 111.5)"><rect x="0" y="0" width="1008.97" height="1008.97" fill="url(#paint0_diamond_66_332)" opacity="1" shape-rendering="crispEdges"/><rect x="0" y="0" width="1008.97" height="1008.97" transform="scale(1 -1)" fill="url(#paint0_diamond_66_332)" opacity="1" shape-rendering="crispEdges"/><rect x="0" y="0" width="1008.97" height="1008.97" transform="scale(-1 1)" fill="url(#paint0_diamond_66_332)" opacity="1" shape-rendering="crispEdges"/><rect x="0" y="0" width="1008.97" height="1008.97" transform="scale(-1)" fill="url(#paint0_diamond_66_332)" opacity="1" shape-rendering="crispEdges"/></g></g><path d="M111.5 0L223 111.5L111.5 223L0 111.5L111.5 0Z" data-figma-gradient-fill="{&#34;type&#34;:&#34;GRADIENT_DIAMOND&#34;,&#34;stops&#34;:[{&#34;color&#34;:{&#34;r&#34;:0.31812351942062378,&#34;g&#34;:0.31401869654655457,&#34;b&#34;:0.43921568989753723,&#34;a&#34;:1.0},&#34;position&#34;:0.50480771064758301},{&#34;color&#34;:{&#34;r&#34;:0.15855957567691803,&#34;g&#34;:0.18266716599464417,&#34;b&#34;:0.30320513248443604,&#34;a&#34;:1.0},&#34;position&#34;:1.0}],&#34;stopsVar&#34;:[{&#34;color&#34;:{&#34;r&#34;:0.31812351942062378,&#34;g&#34;:0.31401869654655457,&#34;b&#34;:0.43921568989753723,&#34;a&#34;:1.0},&#34;position&#34;:0.50480771064758301},{&#34;color&#34;:{&#34;r&#34;:0.15855957567691803,&#34;g&#34;:0.18266716599464417,&#34;b&#34;:0.30320513248443604,&#34;a&#34;:1.0},&#34;position&#34;:1.0}],&#34;transform&#34;:{&#34;m00&#34;:1.3654812313680393e-14,&#34;m01&#34;:-223.0,&#34;m02&#34;:223.0,&#34;m10&#34;:223.0,&#34;m11&#34;:1.3654812313680393e-14,&#34;m12&#34;:-1.3654812313680393e-14},&#34;opacity&#34;:1.0,&#34;blendMode&#34;:&#34;NORMAL&#34;,&#34;visible&#34;:true}"/>
<g clip-path="url(#paint1_diamond_66_332_clip_path)" data-figma-skip-parse="true"><g transform="matrix(-0.046431 0.0468358 -0.0468358 -0.046431 112.267 112.267)"><rect x="0" y="0" width="1015.16" height="1015.16" fill="url(#paint1_diamond_66_332)" opacity="1" shape-rendering="crispEdges"/><rect x="0" y="0" width="1015.16" height="1015.16" transform="scale(1 -1)" fill="url(#paint1_diamond_66_332)" opacity="1" shape-rendering="crispEdges"/><rect x="0" y="0" width="1015.16" height="1015.16" transform="scale(-1 1)" fill="url(#paint1_diamond_66_332)" opacity="1" shape-rendering="crispEdges"/><rect x="0" y="0" width="1015.16" height="1015.16" transform="scale(-1)" fill="url(#paint1_diamond_66_332)" opacity="1" shape-rendering="crispEdges"/></g></g><path d="M158.698 65.431L159.103 158.698L65.8358 159.103L65.4311 65.8358L158.698 65.431Z" data-figma-gradient-fill="{&#34;type&#34;:&#34;GRADIENT_DIAMOND&#34;,&#34;stops&#34;:[{&#34;color&#34;:{&#34;r&#34;:0.15855957567691803,&#34;g&#34;:0.18266716599464417,&#34;b&#34;:0.30320513248443604,&#34;a&#34;:1.0},&#34;position&#34;:0.0},{&#34;color&#34;:{&#34;r&#34;:0.31812351942062378,&#34;g&#34;:0.31401869654655457,&#34;b&#34;:0.43921568989753723,&#34;a&#34;:1.0},&#34;position&#34;:1.0}],&#34;stopsVar&#34;:[{&#34;color&#34;:{&#34;r&#34;:0.15855957567691803,&#34;g&#34;:0.18266716599464417,&#34;b&#34;:0.30320513248443604,&#34;a&#34;:1.0},&#34;position&#34;:0.0},{&#34;color&#34;:{&#34;r&#34;:0.31812351942062378,&#34;g&#34;:0.31401869654655457,&#34;b&#34;:0.43921568989753723,&#34;a&#34;:1.0},&#34;position&#34;:1.0}],&#34;transform&#34;:{&#34;m00&#34;:-92.861999511718750,&#34;m01&#34;:-93.671562194824219,&#34;m02&#34;:205.53363037109375,&#34;m10&#34;:93.671562194824219,&#34;m11&#34;:-92.861999511718750,&#34;m12&#34;:111.86199951171875},&#34;opacity&#34;:1.0,&#34;blendMode&#34;:&#34;NORMAL&#34;,&#34;visible&#34;:true}"/>
<path d="M112 71L123.074 100.926L153 112L123.074 123.074L112 153L100.926 123.074L71 112L100.926 100.926L112 71Z" fill="url(#paint2_radial_66_332)"/>
<defs>
<clipPath id="paint0_diamond_66_332_clip_path"><path d="M111.5 0L223 111.5L111.5 223L0 111.5L111.5 0Z"/></clipPath><clipPath id="paint1_diamond_66_332_clip_path"><path d="M158.698 65.431L159.103 158.698L65.8358 159.103L65.4311 65.8358L158.698 65.431Z"/></clipPath><linearGradient id="paint0_diamond_66_332" x1="0" y1="0" x2="500" y2="500" gradientUnits="userSpaceOnUse">
<stop offset="0.504808" stop-color="#515070"/>
<stop offset="1" stop-color="#282F4D"/>
</linearGradient>
<linearGradient id="paint1_diamond_66_332" x1="0" y1="0" x2="500" y2="500" gradientUnits="userSpaceOnUse">
<stop stop-color="#282F4D"/>
<stop offset="1" stop-color="#515070"/>
</linearGradient>
<radialGradient id="paint2_radial_66_332" cx="0" cy="0" r="1" gradientUnits="userSpaceOnUse" gradientTransform="translate(112 112) rotate(90) scale(41)">
<stop stop-color="#9B99D6"/>
<stop offset="0.600962" stop-color="#515070"/>
</radialGradient>
</defs>
</svg>
