<svg width="196" height="190" viewBox="0 0 196 190" fill="none" xmlns="http://www.w3.org/2000/svg">
<path d="M133.706 75.0507C140.427 60.1117 161.639 60.1115 168.36 75.0507L186.487 115.344C186.839 116.127 187.134 116.916 187.374 117.708L187.544 117.597C192.448 124.162 195.26 131.904 195.652 139.916C195.758 142.084 195.683 144.248 195.437 146.389L170.526 139.963L164.033 114.79L157.539 139.963L132.366 146.457L157.539 152.95L164.033 178.123L170.526 152.95L195.422 146.528C194.744 152.249 192.828 157.804 189.76 162.841C185.518 169.802 179.254 175.484 171.701 179.224C164.148 182.964 155.618 184.608 147.107 183.961C138.597 183.314 130.458 180.404 123.643 175.572C116.829 170.74 111.619 164.186 108.624 156.675C105.629 149.164 104.972 141.007 106.73 133.158C108.162 126.769 111.145 120.799 115.423 115.703C115.474 115.583 115.524 115.463 115.578 115.344L133.706 75.0507Z" fill="url(#paint0_linear_6_368)"/>
<path d="M95.0001 0L115.153 74.8475L190 95.0001L115.153 115.153L95.0001 190L74.8475 115.153L0 95.0001L74.8475 74.8475L95.0001 0Z" fill="url(#paint1_linear_6_368)"/>
<defs>
<linearGradient id="paint0_linear_6_368" x1="150.733" y1="63.8464" x2="150.733" y2="184.098" gradientUnits="userSpaceOnUse">
<stop offset="0.317308" stop-color="#9B99D6"/>
<stop offset="1" stop-color="#282F4D"/>
</linearGradient>
<linearGradient id="paint1_linear_6_368" x1="36.7334" y1="24.0667" x2="155.167" y2="161.5" gradientUnits="userSpaceOnUse">
<stop stop-color="#E7C2D6"/>
<stop offset="0.274038" stop-color="#E0B1CB"/>
<stop offset="0.649038" stop-color="#44307F"/>
<stop offset="0.8125" stop-color="#282F4D"/>
</linearGradient>
</defs>
</svg>
