<svg width="264" height="292" viewBox="0 0 264 292" fill="none" xmlns="http://www.w3.org/2000/svg">
<path d="M131.5 17L245.382 82.75V214.25L131.5 280L17.6177 214.25V82.75L131.5 17Z" fill="#515070"/>
<path d="M142.936 155.712L235.216 207.394L136.527 261.284L142.936 155.712Z" fill="url(#paint0_linear_66_286)"/>
<path d="M139.932 138.458L234.037 86.2505L136.156 30.9073L139.932 138.458Z" fill="url(#paint1_linear_66_286)"/>
<path d="M152.003 149.003L235.266 199.227L235.261 98.7716L152.003 149.003Z" fill="url(#paint2_linear_66_286)"/>
<path d="M111.017 149.003L27.7541 199.227L27.7587 98.7716L111.017 149.003Z" fill="url(#paint3_linear_66_286)"/>
<path d="M125.103 140.885L29.9689 86.857L127.85 31.5139L125.103 140.885Z" fill="url(#paint4_linear_66_286)"/>
<path d="M122.937 154.026L29.2283 206.159L127.295 261.172L122.937 154.026Z" fill="url(#paint5_linear_66_286)"/>
<defs>
<linearGradient id="paint0_linear_66_286" x1="142.936" y1="155.712" x2="200.183" y2="260.548" gradientUnits="userSpaceOnUse">
<stop stop-color="#A677BE"/>
<stop offset="0.870192" stop-color="#515070"/>
</linearGradient>
<linearGradient id="paint1_linear_66_286" x1="139.932" y1="138.458" x2="200.152" y2="31.9524" gradientUnits="userSpaceOnUse">
<stop stop-color="#A677BE"/>
<stop offset="0.870192" stop-color="#515070"/>
</linearGradient>
<linearGradient id="paint2_linear_66_286" x1="152.003" y1="149.003" x2="263.017" y2="148.998" gradientUnits="userSpaceOnUse">
<stop stop-color="#A677BE"/>
<stop offset="0.870192" stop-color="#515070"/>
</linearGradient>
<linearGradient id="paint3_linear_66_286" x1="111.017" y1="149.003" x2="0.00265506" y2="148.998" gradientUnits="userSpaceOnUse">
<stop stop-color="#A677BE"/>
<stop offset="0.870192" stop-color="#515070"/>
</linearGradient>
<linearGradient id="paint4_linear_66_286" x1="125.103" y1="140.885" x2="63.5118" y2="31.9524" gradientUnits="userSpaceOnUse">
<stop stop-color="#A677BE"/>
<stop offset="0.870192" stop-color="#515070"/>
</linearGradient>
<linearGradient id="paint5_linear_66_286" x1="122.937" y1="154.026" x2="63.3701" y2="260.211" gradientUnits="userSpaceOnUse">
<stop stop-color="#A677BE"/>
<stop offset="0.870192" stop-color="#515070"/>
</linearGradient>
</defs>
</svg>
