<svg width="223" height="231" viewBox="0 0 223 231" fill="none" xmlns="http://www.w3.org/2000/svg">
<path d="M59.8285 104.804L76.4792 122.129L97.817 111.079L86.4858 132.269L103.588 149.148L79.9341 144.919L69.166 166.4L65.8784 142.597L42.1212 138.994L63.7431 128.512L59.8285 104.804Z" fill="#E0B1CB"/>
<path d="M73.534 106.392L79.8132 129.586L103.836 130.148L83.7172 143.287L90.6063 166.307L71.8933 151.234L52.1287 164.899L60.6817 142.444L41.5775 127.87L65.5765 129.065L73.534 106.392Z" fill="#E0B1CB"/>
<path d="M121.551 11.1285C131.319 7.24645 141.338 5.0412 151.291 4.37425C119.258 30.7942 106.373 75.8106 122.533 116.472C138.693 157.134 178.963 181.024 220.393 178.249C212.697 184.595 203.898 189.87 194.13 193.752C143.7 213.794 86.5707 189.16 66.5285 138.73C46.4863 88.2998 71.1207 31.1707 121.551 11.1285Z" fill="url(#paint0_linear_6_359)"/>
<path d="M0.218226 173.17C-0.588707 175.811 0.898004 178.606 3.53889 179.413L46.5747 192.563C49.2156 193.37 52.0106 191.883 52.8175 189.242C53.6245 186.601 52.1378 183.806 49.4969 182.999L11.2428 171.31L22.9316 133.056C23.7385 130.415 22.2518 127.62 19.6109 126.813C16.97 126.006 14.175 127.493 13.3681 130.134L0.218226 173.17ZM66.5754 141.878L64.2274 137.464L2.65192 170.217L4.99999 174.631L7.34805 179.045L68.9235 146.292L66.5754 141.878Z" fill="url(#paint1_linear_6_359)"/>
<line x1="106.963" y1="121.007" x2="179.654" y2="85.5637" stroke="url(#paint2_linear_6_359)" stroke-width="10"/>
<defs>
<linearGradient id="paint0_linear_6_359" x1="174.017" y1="61.5588" x2="55.7805" y2="128.779" gradientUnits="userSpaceOnUse">
<stop offset="0.4375" stop-color="#D9D9D9"/>
<stop offset="1" stop-color="#796FAA"/>
</linearGradient>
<linearGradient id="paint1_linear_6_359" x1="4.76518" y1="174.19" x2="66.3407" y2="141.437" gradientUnits="userSpaceOnUse">
<stop stop-color="#9F86C0"/>
<stop offset="0.740385" stop-color="#4B3F5A"/>
</linearGradient>
<linearGradient id="paint2_linear_6_359" x1="109.373" y1="125.951" x2="182.064" y2="90.5074" gradientUnits="userSpaceOnUse">
<stop offset="0.600962" stop-color="#4B3F5A"/>
<stop offset="1" stop-color="#9F86C0"/>
</linearGradient>
</defs>
</svg>
