<svg width="527" height="534" viewBox="0 0 527 534" fill="none" xmlns="http://www.w3.org/2000/svg">
<g filter="url(#filter0_d_6_321)">
<circle cx="262.946" cy="266.87" r="147.171" fill="url(#paint0_linear_6_321)" fill-opacity="0.5" shape-rendering="crispEdges"/>
</g>
<path d="M263.081 89.5852C274.817 89.5852 286.28 90.7575 297.363 92.9924L297.856 90.5452C321.186 95.2499 342.864 104.594 361.912 117.592L360.504 119.656C379.505 132.622 395.853 149.275 408.548 168.603L410.635 167.232C423.244 186.428 432.298 208.225 436.846 231.659L434.396 232.136C436.55 243.236 437.68 254.71 437.68 266.453C437.68 278.197 436.55 289.67 434.396 300.77L436.846 301.245C432.298 324.68 423.244 346.477 410.635 365.673L408.548 364.303C395.853 383.631 379.505 400.284 360.504 413.249L361.912 415.313C342.864 428.311 321.186 437.656 297.856 442.361L297.363 439.913C286.28 442.148 274.817 443.321 263.081 443.321C251.346 443.321 239.883 442.148 228.8 439.913L228.306 442.361C204.976 437.656 183.298 428.311 164.25 415.313L165.659 413.249C146.658 400.284 130.31 383.631 117.615 364.303L115.527 365.673C102.918 346.477 93.8639 324.68 89.3157 301.245L91.7679 300.77C89.7483 290.364 88.6293 279.629 88.4974 268.652L88.4837 266.453C88.4837 254.71 89.6137 243.236 91.7679 232.136L89.3157 231.659C93.8641 208.225 102.918 186.428 115.527 167.232L117.615 168.603C130.31 149.275 146.658 132.622 165.659 119.656L164.249 117.592C183.297 104.594 204.976 95.2501 228.306 90.5452L228.8 92.9924C239.883 90.7575 251.346 89.5852 263.081 89.5852Z" stroke="#9F86C0" stroke-width="5" stroke-dasharray="80 80"/>
<path d="M182.884 84.6716C194.93 79.2148 207.228 75.0859 219.618 72.2214L219.863 72.151C221.057 71.7441 221.78 70.4906 221.508 69.2298C245.935 63.9084 270.682 63.4173 294.558 67.2921C294.325 68.6507 295.222 69.9393 296.57 70.1757L298.952 70.6084C323.531 75.2317 347.081 84.5584 368.248 98.0659L368.47 98.1915C369.591 98.7551 370.978 98.3842 371.677 97.2983C391.854 110.531 409.82 127.554 424.405 147.92C423.289 148.724 423.019 150.281 423.805 151.407C431.08 161.837 437.468 173.134 442.813 185.236C447.823 196.583 451.701 208.15 454.495 219.806L455.039 222.138C455.344 223.481 456.669 224.316 458.005 224.009C463.27 248.596 463.821 273.507 460.11 297.561C458.845 297.365 457.648 298.166 457.315 299.388L457.26 299.639C453.09 324.623 444.255 348.619 431.272 370.258L430.003 372.344C429.278 373.519 429.629 375.055 430.783 375.785C417.719 396.393 400.861 414.748 380.661 429.642C379.864 428.527 378.319 428.272 377.199 429.076C366.832 436.52 355.595 443.051 343.548 448.507C331.502 453.964 319.204 458.094 306.814 460.959L306.569 461.028C305.375 461.435 304.651 462.689 304.923 463.95C280.495 469.271 255.749 469.762 231.873 465.886C232.106 464.528 231.21 463.24 229.862 463.003L227.48 462.571C202.901 457.947 179.351 448.621 158.184 435.113L157.963 434.987C156.842 434.423 155.452 434.794 154.753 435.88C134.577 422.647 116.611 405.625 102.026 385.26C103.142 384.456 103.413 382.898 102.627 381.772L101.274 379.807C95.0052 370.586 89.4235 360.705 84.6335 350.203L83.6193 347.943C78.6089 336.596 74.7316 325.03 71.9378 313.374L71.3934 311.041C71.0883 309.697 69.762 308.863 68.4259 309.17C63.1607 284.583 62.6092 259.671 66.3206 235.618C67.6707 235.828 68.9452 234.902 69.1724 233.54C73.4763 207.75 82.7516 183.013 96.429 160.835C97.1538 159.659 96.803 158.123 95.6472 157.394C108.712 136.786 125.57 118.431 145.77 103.537C146.567 104.653 148.114 104.908 149.233 104.104C159.6 96.6603 170.837 90.1285 182.884 84.6716Z" stroke="#4B3F5A" stroke-width="5" stroke-miterlimit="2.9238" stroke-linecap="round" stroke-dasharray="65 65"/>
<defs>
<filter id="filter0_d_6_321" x="111.774" y="119.699" width="302.342" height="302.342" filterUnits="userSpaceOnUse" color-interpolation-filters="sRGB">
<feFlood flood-opacity="0" result="BackgroundImageFix"/>
<feColorMatrix in="SourceAlpha" type="matrix" values="0 0 0 0 0 0 0 0 0 0 0 0 0 0 0 0 0 0 127 0" result="hardAlpha"/>
<feOffset dy="4"/>
<feGaussianBlur stdDeviation="2"/>
<feComposite in2="hardAlpha" operator="out"/>
<feColorMatrix type="matrix" values="0 0 0 0 0 0 0 0 0 0 0 0 0 0 0 0 0 0 0.25 0"/>
<feBlend mode="normal" in2="BackgroundImageFix" result="effect1_dropShadow_6_321"/>
<feBlend mode="normal" in="SourceGraphic" in2="effect1_dropShadow_6_321" result="shape"/>
</filter>
<linearGradient id="paint0_linear_6_321" x1="196.258" y1="119.699" x2="329.633" y2="414.041" gradientUnits="userSpaceOnUse">
<stop offset="0.0913462" stop-color="#F890C9"/>
<stop offset="0.485577" stop-color="#4D3758"/>
<stop offset="0.716346" stop-color="#282F4D"/>
<stop offset="1" stop-color="#231942"/>
</linearGradient>
</defs>
</svg>
