<svg width="615" height="623" viewBox="0 0 615 623" fill="none" xmlns="http://www.w3.org/2000/svg">
<g filter="url(#filter0_d_117_2354)">
<ellipse cx="307.184" cy="311.77" rx="171.931" ry="171.931" fill="url(#paint0_linear_117_2354)"/>
</g>
<path d="M307.344 104.236C321.082 104.236 334.501 105.609 347.476 108.225L347.969 105.774C375.224 111.27 400.549 122.19 422.802 137.375L421.394 139.44C443.636 154.618 462.774 174.112 477.636 196.738L479.725 195.365C494.455 217.791 505.032 243.256 510.346 270.633H510.347L507.893 271.11C510.414 284.103 511.736 297.534 511.736 311.281C511.736 325.027 510.414 338.458 507.893 351.452L510.346 351.927C505.032 379.305 494.455 404.77 479.725 427.196L477.636 425.824C462.774 448.449 443.636 467.943 421.394 483.122L422.802 485.186C400.549 500.371 375.224 511.29 347.969 516.787L347.476 514.336C334.501 516.953 321.082 518.326 307.344 518.326C293.606 518.326 280.186 516.953 267.212 514.336L266.718 516.787C239.462 511.29 214.137 500.371 191.884 485.186L193.293 483.122C171.05 467.943 151.913 448.449 137.052 425.824L134.962 427.196C120.232 404.77 109.654 379.305 104.341 351.927L106.794 351.452C104.272 338.458 102.95 325.027 102.95 311.281C102.95 297.534 104.272 284.103 106.794 271.11L104.341 270.633C109.587 243.604 119.964 218.438 134.402 196.221L134.962 195.365L137.052 196.738C151.913 174.112 171.05 154.618 193.293 139.44L191.884 137.375C214.136 122.19 239.462 111.27 266.717 105.774L267.212 108.225C280.186 105.609 293.606 104.236 307.344 104.236Z" stroke="#5E6CB3" stroke-width="5" stroke-dasharray="80 80"/>
<path d="M243.543 84.7471C261.853 79.4228 280.422 76.4891 298.876 75.8026C298.911 77.181 300.044 78.2671 301.414 78.2313C321.712 77.6978 341.85 79.9074 361.318 84.6636C362.649 84.9883 363.994 84.1673 364.332 82.829C382.437 87.459 399.947 94.2735 416.456 103.116C415.8 104.331 416.24 105.846 417.44 106.506C434.969 116.137 451.324 128.096 466.003 142.188C466.992 143.137 468.56 143.097 469.514 142.101C482.684 155.018 494.477 169.659 504.528 185.883C503.361 186.612 502.991 188.151 503.702 189.327C508.868 197.866 513.55 206.839 517.696 216.227C521.841 225.615 525.324 235.132 528.164 244.723C528.556 246.044 529.934 246.79 531.249 246.395C536.489 264.799 539.403 283.462 540.13 302.015C538.847 302.067 537.822 303.088 537.731 304.353L537.726 304.609C538.293 324.445 536.339 344.134 532.037 363.214L531.613 365.058C531.298 366.403 532.12 367.744 533.451 368.06C528.953 386.418 522.297 404.18 513.634 420.935C512.5 420.338 511.11 420.712 510.407 421.768L510.276 421.988C500.798 439.856 488.999 456.531 475.075 471.499C474.136 472.51 474.179 474.089 475.17 475.034C462.362 488.508 447.826 500.571 431.701 510.845C430.98 509.678 429.455 509.32 428.285 510.047C419.793 515.33 410.863 520.117 401.518 524.35C392.172 528.584 382.697 532.134 373.147 535.023C371.832 535.421 371.077 536.812 371.456 538.135C353.146 543.459 334.577 546.392 316.123 547.078C316.088 545.7 314.955 544.615 313.585 544.651C293.287 545.184 273.15 542.975 253.682 538.219L253.432 538.171C252.187 537.998 250.984 538.798 250.667 540.053C232.561 535.423 215.052 528.608 198.543 519.765C199.198 518.55 198.76 517.035 197.56 516.376C180.031 506.745 163.676 494.786 148.997 480.694C148.008 479.744 146.437 479.784 145.484 480.78C132.314 467.863 120.522 453.222 110.471 436.998C111.638 436.269 112.009 434.73 111.298 433.554C106.132 425.016 101.45 416.042 97.3044 406.654C93.1589 397.267 89.676 387.75 86.8356 378.158C86.4442 376.837 85.0645 376.09 83.7497 376.486C78.5096 358.082 75.5962 339.419 74.8691 320.866C76.2381 320.81 77.3138 319.653 77.2743 318.272C76.6887 297.797 78.7902 277.477 83.3873 257.824C83.7021 256.478 82.8793 255.136 81.5479 254.821C86.0456 236.463 92.7027 218.702 101.365 201.947C102.499 202.545 103.89 202.17 104.593 201.115L104.725 200.895C114.202 183.027 126 166.351 139.924 151.383C140.864 150.372 140.82 148.793 139.828 147.848C152.635 134.374 167.173 122.311 183.298 112.037C184.019 113.205 185.545 113.562 186.715 112.834C195.207 107.551 204.137 102.765 213.483 98.532C222.828 94.2986 232.303 90.7476 241.853 87.8582C243.168 87.4601 243.922 86.0697 243.543 84.7471Z" stroke="#282F4D" stroke-width="5" stroke-miterlimit="2.9238" stroke-linecap="round" stroke-dasharray="65 65"/>
<defs>
<filter id="filter0_d_117_2354" x="131.252" y="139.838" width="351.863" height="351.863" filterUnits="userSpaceOnUse" color-interpolation-filters="sRGB">
<feFlood flood-opacity="0" result="BackgroundImageFix"/>
<feColorMatrix in="SourceAlpha" type="matrix" values="0 0 0 0 0 0 0 0 0 0 0 0 0 0 0 0 0 0 127 0" result="hardAlpha"/>
<feOffset dy="4"/>
<feGaussianBlur stdDeviation="2"/>
<feComposite in2="hardAlpha" operator="out"/>
<feColorMatrix type="matrix" values="0 0 0 0 0 0 0 0 0 0 0 0 0 0 0 0 0 0 0.25 0"/>
<feBlend mode="normal" in2="BackgroundImageFix" result="effect1_dropShadow_117_2354"/>
<feBlend mode="normal" in="SourceGraphic" in2="effect1_dropShadow_117_2354" result="shape"/>
</filter>
<linearGradient id="paint0_linear_117_2354" x1="229.277" y1="139.838" x2="385.091" y2="483.701" gradientUnits="userSpaceOnUse">
<stop stop-color="#5E6CB3"/>
<stop offset="0.908654" stop-color="#282F4D"/>
</linearGradient>
</defs>
</svg>
