<svg width="198" height="191" viewBox="0 0 198 191" fill="none" xmlns="http://www.w3.org/2000/svg">
<path d="M0.283947 91.9826C0.184883 81.4719 1.74047 71.3313 4.70676 61.8078C17.8002 101.212 55.1433 129.46 98.8965 129.048C142.65 128.636 179.453 99.6879 191.801 60.0444C194.946 69.5104 196.694 79.6197 196.793 90.1305C197.304 144.395 153.729 188.8 99.4645 189.311C45.2001 189.822 0.795438 146.247 0.283947 91.9826Z" fill="url(#paint0_linear_26_115)"/>
<path d="M99.0001 0L119.153 74.8475L194 95.0001L119.153 115.153L99.0001 190L78.8475 115.153L4 95.0001L78.8475 74.8475L99.0001 0Z" fill="url(#paint1_linear_26_115)"/>
<defs>
<linearGradient id="paint0_linear_26_115" x1="66.2391" y1="61.2278" x2="86.3076" y2="195.748" gradientUnits="userSpaceOnUse">
<stop offset="0.4375" stop-color="#D9D9D9"/>
<stop offset="1" stop-color="#796FAA"/>
</linearGradient>
<linearGradient id="paint1_linear_26_115" x1="99" y1="9.5" x2="99" y2="184" gradientUnits="userSpaceOnUse">
<stop stop-color="#E7C2D6"/>
<stop offset="0.413462" stop-color="#E0B1CB"/>
<stop offset="0.778846" stop-color="#44307F"/>
<stop offset="0.899038" stop-color="#282F4D"/>
</linearGradient>
</defs>
</svg>
