<svg width="222" height="229" viewBox="0 0 222 229" fill="none" xmlns="http://www.w3.org/2000/svg">
<path d="M126.448 0.639648C180.699 9.88037 222 57.1161 222 114C222 177.513 170.513 229 107 229C58.4423 229 16.9137 198.905 0.0488281 156.35C10.5107 167.229 25.2145 174 41.5 174C62.755 174 81.3149 162.467 91.2666 145.317C101.299 153.85 114.298 159 128.5 159C160.256 159 186 133.256 186 101.5C186 73.1183 165.437 49.5405 138.396 44.8496C138.793 42.1236 139 39.3359 139 36.5C139 22.937 134.303 10.4719 126.448 0.639648Z" fill="url(#paint0_linear_66_297)"/>
<defs>
<linearGradient id="paint0_linear_66_297" x1="55" y1="60" x2="212.5" y2="212.5" gradientUnits="userSpaceOnUse">
<stop stop-color="#4D3758"/>
<stop offset="0.769231" stop-color="#515070"/>
<stop offset="1" stop-color="#282F4D"/>
</linearGradient>
</defs>
</svg>
