<svg width="178" height="147" viewBox="0 0 178 147" fill="none" xmlns="http://www.w3.org/2000/svg">
<path d="M177.332 100.388C177.265 110.899 175.712 121.015 172.897 130.492C161.682 90.8946 128.446 62.0823 89.0055 61.8302C49.5649 61.5782 15.9636 89.9637 4.24394 129.415C1.54994 119.902 0.125221 109.768 0.192353 99.2568C0.538976 44.9913 40.4738 1.25359 89.3895 1.56579C138.305 1.87827 177.679 46.1227 177.332 100.388Z" fill="url(#paint0_linear_66_246)"/>
<path d="M89.4999 112L108.247 124.092L168.913 124.092L119.833 131.566L138.58 143.658L89.4999 136.184L40.4198 143.658L59.1667 131.566L10.0866 124.092L70.7529 124.092L89.4999 112Z" fill="url(#paint1_radial_66_246)"/>
<path d="M85.4347 123.506C87.3709 125.475 90.5366 125.501 92.5056 123.565L124.592 92.0138C126.561 90.0777 126.587 86.912 124.651 84.943C122.715 82.974 119.549 82.9474 117.58 84.8836L89.0593 112.929L61.0137 84.4082C59.0775 82.4393 55.9118 82.4127 53.9429 84.3488C51.9739 86.285 51.9473 89.4507 53.8834 91.4196L85.4347 123.506ZM89.9999 1L85 0.957985L84 119.958L88.9999 120L93.9997 120.042L94.9997 1.04202L89.9999 1Z" fill="url(#paint2_linear_66_246)"/>
<defs>
<linearGradient id="paint0_linear_66_246" x1="117.429" y1="130.138" x2="97.5223" y2="-4.10423" gradientUnits="userSpaceOnUse">
<stop offset="0.4375" stop-color="#D9D9D9"/>
<stop offset="1" stop-color="#796FAA"/>
</linearGradient>
<radialGradient id="paint1_radial_66_246" cx="0" cy="0" r="1" gradientUnits="userSpaceOnUse" gradientTransform="translate(89.4999 129.5) scale(83.5 17.5)">
<stop stop-color="#7B57E5"/>
<stop offset="1" stop-color="#44307F"/>
</radialGradient>
<linearGradient id="paint2_linear_66_246" x1="88.4999" y1="119.996" x2="89.4999" y2="0.995798" gradientUnits="userSpaceOnUse">
<stop stop-color="#4B3F5A"/>
<stop offset="1" stop-color="#1E1E1E"/>
</linearGradient>
</defs>
</svg>
