<svg width="566" height="574" viewBox="0 0 566 574" fill="none" xmlns="http://www.w3.org/2000/svg">
<g filter="url(#filter0_d_117_2359)">
<ellipse cx="282.709" cy="286.93" rx="158.233" ry="158.233" fill="url(#paint0_linear_117_2359)"/>
</g>
<path d="M282.856 96.1304C295.486 96.1304 307.823 97.392 319.75 99.7974L320.245 97.3472C345.328 102.405 368.635 112.455 389.115 126.43L387.707 128.495C408.155 142.449 425.751 160.371 439.414 181.172L441.5 179.801C455.056 200.44 464.791 223.875 469.681 249.071L467.231 249.547C469.549 261.493 470.765 273.842 470.765 286.48C470.765 299.118 469.549 311.467 467.231 323.413L469.681 323.887C464.791 349.084 455.056 372.518 441.5 393.158L439.414 391.788C425.751 412.589 408.155 430.51 387.707 444.464L389.115 446.529C368.635 460.504 345.328 470.553 320.245 475.612L319.75 473.162C307.823 475.567 295.486 476.83 282.856 476.83C270.226 476.83 257.888 475.567 245.96 473.162L245.466 475.612C220.382 470.553 197.075 460.504 176.595 446.529L178.004 444.464C157.556 430.51 139.961 412.589 126.298 391.788L124.211 393.158C110.655 372.518 100.92 349.083 96.0298 323.887L98.481 323.413C96.3074 312.214 95.1035 300.66 94.9614 288.846L94.9468 286.48C94.9468 273.842 96.1625 261.493 98.481 249.547L96.0298 249.071C100.92 223.875 110.654 200.44 124.21 179.8L126.298 181.172C139.961 160.371 157.556 142.449 178.004 128.495L176.595 126.43C197.075 112.455 220.382 102.406 245.466 97.3472L245.96 99.7974C257.888 97.3919 270.226 96.1304 282.856 96.1304Z" stroke="#9B99D6" stroke-width="5" stroke-dasharray="80 80"/>
<path d="M224.329 77.9393C241.053 73.0933 258.01 70.4144 274.864 69.7714C274.9 71.1491 276.033 72.2344 277.404 72.1984C296.066 71.7079 314.582 73.7387 332.482 78.1119C333.812 78.4368 335.157 77.617 335.496 76.2794C352.027 80.5232 368.016 86.7451 383.101 94.8064C382.446 96.0216 382.885 97.5367 384.085 98.1962C400.202 107.052 415.24 118.048 428.737 131.005C429.726 131.954 431.294 131.914 432.247 130.919C444.265 142.728 455.033 156.099 464.224 170.905C463.058 171.635 462.689 173.173 463.4 174.348C468.15 182.199 472.455 190.449 476.267 199.081C480.079 207.714 483.281 216.465 485.892 225.284C486.283 226.604 487.661 227.35 488.975 226.957C493.745 243.765 496.407 260.808 497.087 277.752C495.719 277.809 494.645 278.968 494.684 280.347C495.206 298.585 493.408 316.689 489.453 334.232L489.063 335.927C488.749 337.273 489.571 338.613 490.901 338.929C486.779 355.691 480.699 371.91 472.802 387.219C471.668 386.623 470.278 386.998 469.576 388.052L469.445 388.273C460.73 404.702 449.882 420.034 437.08 433.796C436.14 434.807 436.183 436.385 437.173 437.331C425.464 449.626 412.189 460.642 397.473 470.037C396.752 468.87 395.227 468.512 394.058 469.24C386.249 474.097 378.039 478.498 369.446 482.391C360.853 486.283 352.141 489.547 343.361 492.204L343.12 492.291C341.955 492.777 341.315 494.076 341.669 495.315C324.945 500.161 307.989 502.84 291.135 503.483C291.099 502.105 289.967 501.02 288.596 501.056L286.847 501.095C268.777 501.417 250.859 499.379 233.518 495.143L233.267 495.094C232.022 494.922 230.82 495.721 230.502 496.975C213.972 492.731 197.982 486.509 182.898 478.447C183.553 477.232 183.116 475.718 181.915 475.058C165.798 466.203 150.76 455.207 137.264 442.25L137.07 442.083C136.08 441.31 134.645 441.402 133.752 442.335C121.734 430.526 110.966 417.155 101.775 402.349C102.941 401.619 103.311 400.082 102.6 398.906L101.714 397.429C97.3139 390.022 93.3066 382.265 89.733 374.172C86.1595 366.079 83.1215 357.883 80.6038 349.623L80.1078 347.971C79.7168 346.65 78.3379 345.904 77.0237 346.297C72.2542 329.489 69.592 312.446 68.9124 295.502C70.1947 295.449 71.219 294.428 71.3101 293.164L71.3163 292.908C70.7946 274.669 72.5918 256.566 76.5476 239.022L76.9369 237.327C77.2517 235.981 76.4286 234.64 75.0975 234.325C79.2201 217.563 85.2998 201.344 93.1962 186.035C94.4066 186.672 95.9078 186.202 96.5555 184.981C104.997 169.066 115.442 154.18 127.725 140.753L128.92 139.458C129.86 138.447 129.817 136.868 128.826 135.923C140.535 123.628 153.81 112.612 168.525 103.217C169.2 104.312 170.584 104.694 171.718 104.139L171.943 104.015C179.751 99.1572 187.961 94.7564 196.554 90.864C205.147 86.9716 213.859 83.7071 222.639 81.0504C223.954 80.6525 224.708 79.2618 224.329 77.9393Z" stroke="#44307F" stroke-width="5" stroke-miterlimit="2.9238" stroke-linecap="round" stroke-dasharray="65 65"/>
<defs>
<filter id="filter0_d_117_2359" x="120.476" y="128.697" width="324.466" height="324.465" filterUnits="userSpaceOnUse" color-interpolation-filters="sRGB">
<feFlood flood-opacity="0" result="BackgroundImageFix"/>
<feColorMatrix in="SourceAlpha" type="matrix" values="0 0 0 0 0 0 0 0 0 0 0 0 0 0 0 0 0 0 127 0" result="hardAlpha"/>
<feOffset dy="4"/>
<feGaussianBlur stdDeviation="2"/>
<feComposite in2="hardAlpha" operator="out"/>
<feColorMatrix type="matrix" values="0 0 0 0 0 0 0 0 0 0 0 0 0 0 0 0 0 0 0.25 0"/>
<feBlend mode="normal" in2="BackgroundImageFix" result="effect1_dropShadow_117_2359"/>
<feBlend mode="normal" in="SourceGraphic" in2="effect1_dropShadow_117_2359" result="shape"/>
</filter>
<linearGradient id="paint0_linear_117_2359" x1="211.009" y1="128.697" x2="354.408" y2="445.162" gradientUnits="userSpaceOnUse">
<stop stop-color="#44307F"/>
<stop offset="0.908654" stop-color="#231942"/>
</linearGradient>
</defs>
</svg>
